<?xml version="1.0" encoding="utf-8"?>
<!-- Generator: Adobe Illustrator 24.1.0, SVG Export Plug-In . SVG Version: 6.00 Build 0)  -->
<svg version="1.1" id="Capa_1" xmlns="http://www.w3.org/2000/svg" xmlns:xlink="http://www.w3.org/1999/xlink" x="0px" y="0px"
	 viewBox="0 0 238.4 55.6" style="enable-background:new 0 0 238.4 55.6;" xml:space="preserve">
<style type="text/css">
	.st0{fill:none;stroke:#026937;stroke-width:1.333;stroke-miterlimit:10;}
	.st1{fill:#026937;}
</style>
<g>
	<path class="st0" d="M238.4,27.8h-95.1c0,14.3-11.6,25.9-25.9,25.9S91.4,42.1,91.4,27.8H0"/>
	<g>
		<path class="st1" d="M123.3,43.9l-1.6-1.3l14.3-17.9c0.2-0.3,0.2-0.7-0.1-1c-0.3-0.2-0.7-0.2-1,0.1l-14.3,17.9l-12.7-10.1
			c-0.3-0.2-0.7-0.2-1,0.1c-0.2,0.3-0.2,0.7,0.1,1l12.2,9.7c0.3,0.2,0.3,0.7,0.1,1c-0.7,0.9-2,1-2.9,0.3L102,32.2
			c-0.9-0.7-1-2-0.3-2.9c0.2-0.3,0.7-0.3,1-0.1l1.9,1.5c0.3,0.2,0.7,0.2,1-0.1c0.2-0.3,0.2-0.7-0.1-1l-1.7-1.3
			c-0.4-0.3-0.5-0.9-0.2-1.4l3.4-4.3c0.1-0.1,0.2-0.3,0.1-0.5l-1.3-12.3c-0.2-2,1.2-3.9,3.3-4.1c1-0.1,1.9,0.2,2.7,0.8
			c0.8,0.6,1.3,1.5,1.4,2.5l0.4,3.4c0,0.3,0.2,0.5,0.5,0.6s0.6,0,0.7-0.2l5.3-6.7c3.9-4.9,11-5.7,15.8-1.8c4.9,3.9,5.7,11,1.8,15.8
			l-0.9,1.1c-0.2,0.3-0.2,0.7,0.1,1c0.3,0.2,0.7,0.2,1-0.1l0.9-1.1c4.4-5.5,3.5-13.4-2-17.8c-5.5-4.3-13.4-3.4-17.8,2l-4.3,5.4
			l-0.2-1.8c-0.2-1.3-0.8-2.6-1.9-3.4c-1.1-0.8-2.4-1.2-3.7-1.1c-2.8,0.3-4.8,2.8-4.5,5.6l1.3,12l-3.3,4.1c-0.4,0.5-0.5,1.1-0.5,1.6
			c-0.5,0.1-1,0.3-1.4,0.8c-1.2,1.5-0.9,3.6,0.5,4.8l14.4,11.5c0.7,0.5,1.5,0.8,2.3,0.7c-0.4,1.3,0,2.9,1.1,3.8l0,0
			c1.5,1.2,3.7,0.9,4.8-0.5l0,0C125,47.3,124.7,45.1,123.3,43.9 M122.7,47.9c-0.7,0.9-2,1-2.9,0.3l0,0c-0.9-0.7-1-2-0.3-2.9l1.3-1.6
			l1.6,1.3C123.3,45.7,123.4,47,122.7,47.9L122.7,47.9z"/>
		<path class="st1" d="M124.7,8.6c0.3,0.2,0.7,0.2,1-0.1c0.2-0.3,0.2-0.7-0.1-1c-0.3-0.2-0.7-0.2-1,0.1
			C124.3,7.9,124.4,8.4,124.7,8.6"/>
		<path class="st1" d="M127.9,11.2c0.3,0.2,0.7,0.2,1-0.1c0.2-0.3,0.2-0.7-0.1-1c-0.3-0.2-0.7-0.2-1,0.1
			C127.6,10.5,127.6,10.9,127.9,11.2"/>
		<path class="st1" d="M131.1,13.8c0.3,0.2,0.7,0.2,1-0.1c0.2-0.3,0.2-0.7-0.1-1c-0.3-0.2-0.7-0.2-1,0.1
			C130.8,13.1,130.8,13.5,131.1,13.8"/>
		<path class="st1" d="M134.4,16.3c0.3,0.2,0.7,0.2,1-0.1c0.2-0.3,0.2-0.7-0.1-1c-0.3-0.2-0.7-0.2-1,0.1
			C134,15.7,134.1,16.1,134.4,16.3"/>
		<path class="st1" d="M122.1,11.8c0.3,0.2,0.7,0.2,1-0.1c0.2-0.3,0.2-0.7-0.1-1c-0.3-0.2-0.7-0.2-1,0.1
			C121.7,11.2,121.8,11.6,122.1,11.8"/>
		<path class="st1" d="M125.3,14.4c0.3,0.2,0.7,0.2,1-0.1c0.2-0.3,0.2-0.7-0.1-1c-0.3-0.2-0.7-0.2-1,0.1
			C125,13.8,125,14.2,125.3,14.4"/>
		<path class="st1" d="M128.6,17c0.3,0.2,0.7,0.2,1-0.1c0.2-0.3,0.2-0.7-0.1-1c-0.3-0.2-0.7-0.2-1,0.1
			C128.2,16.3,128.3,16.8,128.6,17"/>
		<path class="st1" d="M131.8,19.6c0.3,0.2,0.7,0.2,1-0.1c0.2-0.3,0.2-0.7-0.1-1c-0.3-0.2-0.7-0.2-1,0.1
			C131.4,18.9,131.5,19.3,131.8,19.6"/>
		<path class="st1" d="M120.3,14c-0.3-0.2-0.7-0.2-1,0.1c-0.2,0.3-0.2,0.7,0.1,1c0.3,0.2,0.7,0.2,1-0.1
			C120.7,14.7,120.6,14.2,120.3,14"/>
		<path class="st1" d="M123.6,16.6c-0.3-0.2-0.7-0.2-1,0.1c-0.2,0.3-0.2,0.7,0.1,1c0.3,0.2,0.7,0.2,1-0.1
			C123.9,17.3,123.9,16.8,123.6,16.6"/>
		<path class="st1" d="M126.8,19.2c-0.3-0.2-0.7-0.2-1,0.1c-0.2,0.3-0.2,0.7,0.1,1c0.3,0.2,0.7,0.2,1-0.1
			C127.2,19.8,127.1,19.4,126.8,19.2"/>
		<path class="st1" d="M130.1,21.8c-0.3-0.2-0.7-0.2-1,0.1c-0.2,0.3-0.2,0.7,0.1,1c0.3,0.2,0.7,0.2,1-0.1
			C130.4,22.4,130.3,22,130.1,21.8"/>
		<path class="st1" d="M117.8,17.3c-0.3-0.2-0.7-0.2-1,0.1c-0.2,0.3-0.2,0.7,0.1,1c0.3,0.2,0.7,0.2,1-0.1
			C118.1,17.9,118.1,17.5,117.8,17.3"/>
		<path class="st1" d="M121,19.8c-0.3-0.2-0.7-0.2-1,0.1c-0.2,0.3-0.2,0.7,0.1,1c0.3,0.2,0.7,0.2,1-0.1
			C121.3,20.5,121.3,20.1,121,19.8"/>
		<path class="st1" d="M124.2,22.4c-0.3-0.2-0.7-0.2-1,0.1c-0.2,0.3-0.2,0.7,0.1,1c0.3,0.2,0.7,0.2,1-0.1
			C124.6,23.1,124.5,22.6,124.2,22.4"/>
		<path class="st1" d="M127.5,25c-0.3-0.2-0.7-0.2-1,0.1c-0.2,0.3-0.2,0.7,0.1,1c0.3,0.2,0.7,0.2,1-0.1
			C127.8,25.7,127.8,25.2,127.5,25"/>
		<path class="st1" d="M114.3,21.6c0.3,0.2,0.7,0.2,1-0.1c0.2-0.3,0.2-0.7-0.1-1c-0.3-0.2-0.7-0.2-1,0.1
			C114,20.9,114,21.3,114.3,21.6"/>
		<path class="st1" d="M117.6,24.1c0.3,0.2,0.7,0.2,1-0.1c0.2-0.3,0.2-0.7-0.1-1c-0.3-0.2-0.7-0.2-1,0.1
			C117.2,23.5,117.3,23.9,117.6,24.1"/>
		<path class="st1" d="M120.8,26.7c0.3,0.2,0.7,0.2,1-0.1c0.2-0.3,0.2-0.7-0.1-1c-0.3-0.2-0.7-0.2-1,0.1
			C120.5,26.1,120.5,26.5,120.8,26.7"/>
		<path class="st1" d="M124,29.3c0.3,0.2,0.7,0.2,1-0.1c0.2-0.3,0.2-0.7-0.1-1c-0.3-0.2-0.7-0.2-1,0.1
			C123.7,28.6,123.7,29.1,124,29.3"/>
		<path class="st1" d="M112.6,23.7c-0.3-0.2-0.7-0.2-1,0.1c-0.2,0.3-0.2,0.7,0.1,1c0.3,0.2,0.7,0.2,1-0.1
			C112.9,24.4,112.9,24,112.6,23.7"/>
		<path class="st1" d="M115.8,26.3c-0.3-0.2-0.7-0.2-1,0.1c-0.2,0.3-0.2,0.7,0.1,1c0.3,0.2,0.7,0.2,1-0.1
			C116.2,27,116.1,26.6,115.8,26.3"/>
		<path class="st1" d="M119.1,28.9c-0.3-0.2-0.7-0.2-1,0.1c-0.2,0.3-0.2,0.7,0.1,1c0.3,0.2,0.7,0.2,1-0.1
			C119.4,29.6,119.4,29.1,119.1,28.9"/>
		<path class="st1" d="M122.3,31.5c-0.3-0.2-0.7-0.2-1,0.1c-0.2,0.3-0.2,0.7,0.1,1c0.3,0.2,0.7,0.2,1-0.1
			C122.6,32.1,122.6,31.7,122.3,31.5"/>
		<path class="st1" d="M109.2,28c0.3,0.2,0.7,0.2,1-0.1c0.2-0.3,0.2-0.7-0.1-1c-0.3-0.2-0.7-0.2-1,0.1
			C108.8,27.4,108.9,27.8,109.2,28"/>
		<path class="st1" d="M112.4,30.6c0.3,0.2,0.7,0.2,1-0.1c0.2-0.3,0.2-0.7-0.1-1c-0.3-0.2-0.7-0.2-1,0.1
			C112.1,30,112.1,30.4,112.4,30.6"/>
		<path class="st1" d="M115.6,33.2c0.3,0.2,0.7,0.2,1-0.1c0.2-0.3,0.2-0.7-0.1-1c-0.3-0.2-0.7-0.2-1,0.1
			C115.3,32.5,115.4,33,115.6,33.2"/>
		<path class="st1" d="M118.9,35.8c0.3,0.2,0.7,0.2,1-0.1c0.2-0.3,0.2-0.7-0.1-1c-0.3-0.2-0.7-0.2-1,0.1
			C118.5,35.1,118.6,35.5,118.9,35.8"/>
		<path class="st1" d="M128.6,5.8c-0.2,0.3-0.2,0.7,0.1,1c0.3,0.2,0.7,0.2,1-0.1c0.2-0.3,0.2-0.7-0.1-1S128.8,5.5,128.6,5.8"/>
		<path class="st1" d="M131.8,8.4c-0.2,0.3-0.2,0.7,0.1,1c0.3,0.2,0.7,0.2,1-0.1c0.2-0.3,0.2-0.7-0.1-1S132,8.1,131.8,8.4"/>
		<path class="st1" d="M135,11c-0.2,0.3-0.2,0.7,0.1,1c0.3,0.2,0.7,0.2,1-0.1c0.2-0.3,0.2-0.7-0.1-1C135.7,10.6,135.3,10.7,135,11"
			/>
	</g>
</g>
</svg>
