<?xml version="1.0" encoding="utf-8"?>
<!-- Generator: Adobe Illustrator 24.1.0, SVG Export Plug-In . SVG Version: 6.00 Build 0)  -->
<svg version="1.1" id="Capa_1" xmlns="http://www.w3.org/2000/svg" xmlns:xlink="http://www.w3.org/1999/xlink" x="0px" y="0px"
	 viewBox="0 0 238.4 54.9" style="enable-background:new 0 0 238.4 54.9;" xml:space="preserve">
<style type="text/css">
	.st0{fill:#026937;}
	.st1{fill:none;stroke:#026937;stroke-width:1.333;stroke-miterlimit:10;}
</style>
<g>
	<path class="st0" d="M137.1,23.9c0-5.2-4.2-9.5-9.4-9.7c-1.5,0-2.9,0.2-4.2,0.8v-2.9h0.1c1.4,0,2.5-1.1,2.5-2.5
		c0-0.7-0.2-1.3-0.7-1.8c-0.5-0.5-1.2-0.8-1.9-0.8H123l0.5-3.8c0-0.4-0.1-0.7-0.3-1c-0.2-0.3-0.6-0.4-0.9-0.4h-6.5
		c-0.4,0-0.7,0.2-0.9,0.4c-0.2,0.3-0.3,0.6-0.3,1l0.5,3.8h-2.5c-0.5,0-0.9,0.3-1.1,0.7c-0.2,0.4-0.2,0.9,0.1,1.3l1.5,2.3
		c0.3,0.5,0.9,0.8,1.5,0.8v1.5c0,0.3,0.3,0.6,0.6,0.6s0.6-0.3,0.6-0.6v-1.5h6.6v3.3c0,0.3,0.2,0.6,0.4,0.8c0.3,0.2,0.6,0.2,0.9,0
		c1.2-0.6,2.6-0.9,4-0.9c4.5,0.1,8.2,3.9,8.3,8.5c0,2.5-1.1,4.9-3,6.5c-0.3,0.3-0.5,0.7-0.4,1.1c0.1,0.7,0.2,1.4,0.2,2.1
		c0,1.8-0.3,3.6-1,5.2c-0.5,1.2-1.7,2.1-3.1,2.1h-16.9c0.4-0.4,0.7-0.9,0.8-1.4h16.1c0.8,0,1.5-0.5,1.7-1.2c0.6-1.5,0.9-3.1,0.9-4.7
		c0-1.7-0.4-3.4-1.1-5c-0.2-0.4-0.6-0.7-1.1-0.7h-14.1c-0.3,0-0.6,0.3-0.6,0.6c0,0.3,0.3,0.6,0.6,0.6l14.2,0c0.6,1.4,1,2.9,1,4.5
		c0,1.5-0.3,2.9-0.8,4.2c-0.1,0.2-0.4,0.4-0.6,0.4h-16.1c0,0,0,0,0,0c0.9-1.3,1.4-2.9,1.2-4.4c-0.1-0.4-0.4-0.7-0.8-0.8
		c-1.8-0.1-3.6,0.5-4.9,1.8c0-0.4-0.1-0.8-0.1-1.2c0-1.6,0.3-3.1,1-4.6h3.6c0.3,0,0.6-0.3,0.6-0.6c0-0.3-0.3-0.6-0.6-0.6H109
		c-0.5,0-0.9,0.3-1.1,0.7c-0.7,1.6-1.1,3.3-1.1,5.1c0,0.8,0.1,1.6,0.2,2.4c-0.3,0.1-0.6,0.3-0.9,0.5c-0.2-0.1-0.3-0.2-0.5-0.3
		c-0.2-0.8-0.3-1.7-0.3-2.6c0-6,3.8-11.2,9.5-13c0.5-0.2,0.9-0.6,0.9-1.2V16c0-0.3-0.3-0.6-0.6-0.6s-0.6,0.3-0.6,0.6l0,3.5
		c-6.2,2-10.3,7.7-10.3,14.2c0,0.7,0.1,1.4,0.2,2.1c-0.3-0.1-0.6-0.1-0.9-0.1c-2.1,0-3.8,1.4-3.8,3.2c0,1.8,1.7,3.2,3.8,3.2
		c1,0,2-0.3,2.7-0.9c0.7,0.6,1.6,0.9,2.7,0.9c0.1,0,0.3,0,0.4,0c0.1,0,0.1,0,0.2,0h19.2c1.8,0,3.5-1.1,4.2-2.8
		c0.7-1.8,1.1-3.7,1.1-5.7c0-0.7-0.1-1.5-0.2-2.3C135.9,29.4,137.2,26.7,137.1,23.9 M115.8,3.1l6.5,0.1l-0.5,3.9h-5.6L115.8,3.1z
		 M115.1,11h-0.5c-0.2,0-0.4-0.1-0.6-0.3l-1.5-2.4h3.2h6.7h1.2c0.4,0,0.7,0.2,1,0.4c0.3,0.3,0.4,0.6,0.4,0.9c0,0.7-0.6,1.3-1.3,1.3
		h-0.7H115.1z M106.2,38.8c0-1.1,1.2-2,2.6-2c1.5,0,2.6,0.9,2.6,2c0,1.1-1.2,2-2.6,2C107.4,40.8,106.2,39.9,106.2,38.8 M112.6,34.2
		c0.1,1-0.2,2-0.6,2.8c-0.7-0.8-1.8-1.3-3-1.3C109.9,34.7,111.2,34.1,112.6,34.2 M100.8,38.8c0-1.1,1.2-2,2.6-2
		c0.7,0,1.4,0.2,1.9,0.6c-0.2,0.4-0.4,0.9-0.4,1.4c0,0.5,0.1,0.9,0.4,1.4c-0.5,0.4-1.2,0.6-1.9,0.6C102,40.8,100.8,39.9,100.8,38.8"
		/>
	<path class="st0" d="M124.1,21c2.8,1.1,5.2,3.2,6.8,5.9c0.2,0.3,0.5,0.5,0.8,0.5h0c0.3,0,0.6-0.2,0.8-0.5c0.5-0.9,0.8-2,0.8-3
		c0-1.5-0.7-3-1.8-4.1c-1.1-1.1-2.6-1.6-4.1-1.6c-1.3,0-2.5,0.5-3.4,1.2c-0.3,0.2-0.4,0.5-0.3,0.9C123.6,20.6,123.8,20.8,124.1,21
		 M127.4,19.3c1.2,0,2.4,0.4,3.3,1.3c0.9,0.9,1.4,2,1.4,3.2c0,0.7-0.1,1.3-0.4,2c-1.6-2.5-3.9-4.5-6.6-5.7
		C125.7,19.6,126.5,19.4,127.4,19.3"/>
	<path class="st1" d="M238.4,27.1h-95.1c0,14.3-11.6,25.9-25.9,25.9S91.4,41.4,91.4,27.1H0"/>
</g>
</svg>
